<?xml version="1.0" encoding="iso-8859-1"?>
<!-- Generator: Adobe Illustrator 19.0.0, SVG Export Plug-In . SVG Version: 6.00 Build 0)  -->
<svg version="1.1" id="Capa_1" xmlns="http://www.w3.org/2000/svg" xmlns:xlink="http://www.w3.org/1999/xlink" x="0px" y="0px"
	 viewBox="0 0 464.759 464.759" style="enable-background:new 0 0 464.759 464.759;" xml:space="preserve">
<g>
	<path style="fill:#ED664C;" d="M425.693,139.463c18.4,2.7,31.2,19.9,28.5,38.3s-19.9,31.2-38.3,28.5c-18.5-2.7-31.2-19.9-28.5-38.3
		C389.993,149.463,407.193,136.763,425.693,139.463z"/>
	<path style="fill:#ED664C;" d="M310.893,236.363c18.4,2.7,31.2,19.9,28.5,38.3c-2.7,18.5-19.9,31.2-38.3,28.5
		c-18.5-2.7-31.2-19.9-28.5-38.3C275.293,246.363,292.493,233.663,310.893,236.363z"/>
	<path style="fill:#ED664C;" d="M174.593,170.763c18.5,2.7,31.2,19.9,28.5,38.3c-2.7,18.5-19.9,31.2-38.3,28.5
		c-18.4-2.7-31.2-19.9-28.5-38.3C138.993,180.863,156.093,168.063,174.593,170.763z"/>
	<path style="fill:#ED664C;" d="M74.393,277.763c2.7,5.7,3.7,12.3,2.7,19c-2.7,18.4-19.9,31.2-38.3,28.5s-31.2-19.9-28.5-38.3
		c2.7-18.5,19.9-31.2,38.3-28.5C60.293,260.163,69.793,267.763,74.393,277.763z"/>
</g>
<path d="M37.293,335.163c2.1,0.3,4.3,0.5,6.4,0.5c21.3,0,40.1-15.7,43.3-37.4c0.9-6,0.5-12.1-1.1-17.9l48.8-49.9
	c6.7,8.9,16.8,15.4,28.7,17.1c2.2,0.3,4.3,0.5,6.5,0.5c9.3,0,18.4-3,26-8.7c4.6-3.4,8.4-7.6,11.2-12.3l55.3,44.6
	c0.4,8.7,3.3,17.1,8.6,24.2c7,9.4,17.2,15.5,28.8,17.2c2.1,0.3,4.3,0.5,6.4,0.5c21.3,0,40.1-15.7,43.3-37.4c0.9-6.1,0.5-12-1-17.6
	l51.8-47c4.4,2.3,9.2,3.9,14.3,4.7c2.2,0.3,4.3,0.5,6.5,0.5c9.3,0,18.4-3,26-8.7c9.4-7,15.5-17.2,17.2-28.8
	c3.5-23.9-13.1-46.1-36.9-49.7l0,0c-23.9-3.5-46.2,13.1-49.7,36.9c-1.7,11.2,1.1,22.4,7.6,31.7l-46.6,42.3
	c-6.6-7.3-15.6-12.4-26.1-14l0,0c-19-2.8-37,7.1-45.3,23.4l-53.7-43.3c0.5-10.2-2.4-20.1-8.6-28.4c-7-9.4-17.2-15.5-28.8-17.2
	c-23.9-3.5-46.1,13.1-49.7,36.9c-0.6,4.2-0.6,8.4,0,12.5l-50.6,51.7c-6.7-7.2-15.7-11.6-25.7-13.6l0,0c-23.9-3-46.2,13.2-49.7,37
	C-3.107,309.263,13.393,331.663,37.293,335.163z M397.193,169.363c1.7-11.8,11.9-20.3,23.5-20.3c1.1,0,2.3,0.1,3.5,0.3
	c13,1.9,22,14,20.1,27s-14,22-27,20.1c-6.3-0.9-11.8-4.2-15.6-9.3S396.293,175.663,397.193,169.363z M282.493,266.263
	c1.7-11.8,11.9-20.3,23.5-20.3c1.1,0,2.3,0.1,3.5,0.3l0,0c13,1.9,22,14,20,27c-1.9,13-14,22-27,20
	C289.593,291.363,280.593,279.263,282.493,266.263z M146.193,200.763c1.7-11.8,11.9-20.3,23.5-20.3c1.1,0,2.3,0.1,3.5,0.3
	c6.3,0.9,11.8,4.2,15.6,9.3s5.4,11.4,4.4,17.6c-0.9,6.3-4.2,11.8-9.3,15.6s-11.4,5.4-17.6,4.4
	C153.193,225.863,144.193,213.763,146.193,200.763z M20.193,288.463c1.7-11.8,11.9-20.3,23.5-20.3c1.1,0,2.3,0.1,3.5,0.3
	c8,1.2,14.8,6.3,18.2,13.6c1.9,4.2,2.6,8.8,1.9,13.3c-1.9,13-14,22-27,20.1C27.193,313.463,18.193,301.363,20.193,288.463z"/>
<g>
</g>
<g>
</g>
<g>
</g>
<g>
</g>
<g>
</g>
<g>
</g>
<g>
</g>
<g>
</g>
<g>
</g>
<g>
</g>
<g>
</g>
<g>
</g>
<g>
</g>
<g>
</g>
<g>
</g>
</svg>
