<?xml version="1.0" encoding="utf-8"?>
<!-- Generator: Adobe Illustrator 23.0.1, SVG Export Plug-In . SVG Version: 6.00 Build 0)  -->
<svg version="1.1" id="Layer_1" xmlns="http://www.w3.org/2000/svg" xmlns:xlink="http://www.w3.org/1999/xlink" x="0px" y="0px"
	 viewBox="0 0 1000 1000" style="enable-background:new 0 0 1000 1000;" xml:space="preserve">
<style type="text/css">
	.st0{fill:#FFFFFF;}
</style>
<g>
	<path d="M519.75,482.1c0.01,13.32-10.77,24.09-24.1,24.1c-13.28,0-24.12-10.79-24.13-24.02c-0.01-13.34,10.81-24.2,24.1-24.2
		C508.95,457.98,519.75,468.77,519.75,482.1z"/>
	<path d="M504.99,514.9c2.27-1.01,4.36-1.97,6.48-2.84c0.25-0.1,0.87,0.14,1.01,0.4c3.42,6.17,6.79,12.37,10.19,18.56
		c2.96,5.39,5.93,10.77,8.9,16.16c1.11,2.01,2.24,4.02,3.31,6.05c0.39,0.74,0.72,1.09,1.72,0.92c7.27-1.24,14.25,2.75,16.81,9.74
		c2.93,7.99-1.34,16.68-9.12,19.45c-7.89,2.81-16.41-1.03-19.32-8.75c-2.17-5.74-1.13-11.15,2.99-15.81
		c0.56-0.63,0.59-1.06,0.21-1.75c-5.98-10.88-11.93-21.76-17.9-32.64C508.54,521.23,506.76,518.09,504.99,514.9z"/>
	<path d="M529.64,480.62c-0.39-2.52-0.77-4.95-1.18-7.51c2.85-0.71,5.78-1.45,8.72-2.15c2.59-0.62,5.2-1.2,7.8-1.81
		c5.08-1.2,10.16-2.41,15.24-3.61c2.68-0.63,5.35-1.25,8.04-1.86c0.76-0.17,1.16-0.43,1.3-1.36c0.79-5.5,3.6-9.69,8.66-12.05
		c6.81-3.17,14.94-1.15,19.21,5.51c4.75,7.41,2.46,16.94-5.14,21.38c-7.09,4.14-16.25,1.94-20.64-5.34
		c-0.46-0.77-0.83-0.89-1.69-0.68c-6.27,1.54-12.56,3.01-18.84,4.5c-7.02,1.66-14.04,3.33-21.05,4.99
		C529.94,480.65,529.82,480.62,529.64,480.62z"/>
	<path d="M466.72,464.19c-1.1,2.31-2.16,4.53-3.29,6.91c-1.4-0.6-2.84-1.21-4.28-1.83c-7.06-3.07-14.12-6.14-21.18-9.22
		c-3.02-1.32-6.03-2.65-9.02-4.02c-0.86-0.4-1.4-0.38-2.14,0.39c-7.56,7.88-20.89,5.38-24.97-4.78c-3.27-8.17,0.54-17.22,9.29-20.18
		c8.17-2.78,16.47,1.74,19.18,9.6c0.73,2.11,1.13,4.35,0.68,6.61c-0.13,0.7,0.18,0.9,0.71,1.13c4.18,1.83,8.35,3.69,12.53,5.53
		c4.72,2.06,9.45,4.11,14.18,6.17c2.51,1.09,5.03,2.17,7.54,3.27C466.2,463.88,466.43,464.03,466.72,464.19z"/>
	<path d="M503.52,418.74c-1.18,0.7-2.44,1.59-3.97,1.86v4.84c0,7.24-0.02,14.48,0.02,21.71c0,1.02-0.26,1.28-1.29,1.21
		c-1.71-0.13-3.44-0.14-5.15-0.01c-1.11,0.08-1.45-0.13-1.44-1.3c0.05-8.28,0-16.56,0.06-24.83c0.01-1.21-0.3-1.8-1.47-2.24
		c-4.38-1.62-7.4-4.71-8.94-9.1c-2.42-6.95,0.16-14.6,6.95-18.36c7.25-4,15.99-1.62,20.31,5.41
		C512.98,405.05,510.85,414.35,503.52,418.74z"/>
	<path d="M434.07,547.7c0,0.03,0,0.05,0.01,0.08c-3.11,0.67-9.53-2.26-12.25-7.2c-0.02-0.04-0.04-0.08-0.06-0.12
		C424.32,544.65,428.85,547.5,434.07,547.7z"/>
	<path d="M440.78,546.4c0.14,0.43-0.13,0.63-0.88,0.82c-1.08,0.26-2.17,0.5-3.26,0.73c-0.53,0.12-0.93,0.01-1.21-0.26
		C437.33,547.59,439.13,547.14,440.78,546.4z"/>
	<path d="M448.13,528.46c1.56,4.7,1.3,9.25-1.39,13.52c-0.47,0.73-0.96,1.49-1.59,2.06c-0.31,0.29-0.78,0.53-1.23,0.63
		c2.94-2.75,4.79-6.67,4.79-11.02c0-6.72-4.42-12.42-10.51-14.35c1.6,0.47,3.19,1.22,4.73,2.27c8.04-6.17,16.1-12.36,24.15-18.54
		c1.75,1.91,3.44,3.77,5.23,5.72c-1.8,1.39-3.57,2.77-5.35,4.14c-6.13,4.71-12.25,9.42-18.4,14.1
		C448,527.42,447.9,527.77,448.13,528.46z"/>
	<path d="M443.98,545.18c-0.67,0.26-1.33,0.52-1.99,0.77c-0.02-0.04-0.03-0.09-0.05-0.13c-0.11-0.3-0.22-0.59-0.32-0.89
		c0.73-0.12,1.46-0.24,2.19-0.35c0,0.01,0,0.01,0,0.02C443.87,544.79,443.92,544.99,443.98,545.18z"/>
</g>
<path d="M449.65,533.41c0,4.35-1.85,8.27-4.79,11.02c-0.35,0.33-0.72,0.64-1.11,0.93c0-0.01,0-0.01,0-0.02
	c-0.73,0.11-1.46,0.23-2.19,0.35c0.1,0.3,0.21,0.59,0.32,0.89c-0.37,0.21-0.76,0.41-1.16,0.58c-1.65,0.74-3.45,1.19-5.35,1.29
	c-0.26,0.01-0.52,0.02-0.78,0.02c-0.19,0-0.39,0-0.58-0.01c-5.22-0.2-9.75-3.05-12.3-7.24c-0.01-0.01-0.02-0.03-0.03-0.05
	c-3.55-6.59-2.46-13.73,2.96-18.78c3.64-3.38,8.91-4.86,14.14-3.44c0.13,0.03,0.25,0.07,0.36,0.11
	C445.23,520.99,449.65,526.69,449.65,533.41z"/>
<path d="M434.59,518.35c1.45,0,2.86,0.21,4.19,0.6c-5.23-1.42-10.5,0.06-14.14,3.44c-5.42,5.05-6.51,12.19-2.96,18.78
	c-1.36-2.26-2.15-4.92-2.15-7.76C419.53,525.1,426.27,518.35,434.59,518.35z"/>
<path d="M443.75,545.34c0,0.01,0,0.01,0,0.02c-0.59,0.45-1.21,0.86-1.87,1.22c-0.11-0.3-0.22-0.59-0.32-0.89
	C442.29,545.57,443.02,545.45,443.75,545.34z"/>
<circle cx="537.18" cy="567.35" r="19.88"/>
<circle cx="434.5" cy="533.74" r="15.5"/>
<circle cx="494.53" cy="405.71" r="19.88"/>
<circle class="st0" cx="494.88" cy="405.53" r="12.47"/>
<circle class="st0" cx="434.76" cy="533.88" r="9.41"/>
</svg>
